<svg width="238" height="115" viewBox="0 0 238 115" fill="none" xmlns="http://www.w3.org/2000/svg">
<path d="M3.30446 113.905C1.08325 113.905 0 112.931 0 110.923V108.921C0 107.187 0.322787 106.213 2.1665 104.856L14.9521 94.6748H0V86.8732H25.7299C27.7323 86.8732 28.7116 87.6883 28.7116 89.3132V91.0475C28.7116 92.4043 28.3888 93.3234 27.032 94.2973L12.4628 106H28.7116V113.911H3.30446V113.905Z" fill="white"/>
<path d="M46.4935 114.15C38.1482 114.15 32.0815 108.523 32.0815 100.333L32.0815 86.9185H40.6229V99.6898C40.6229 103.393 43.1466 105.861 46.6405 105.861H53.3344C56.8284 105.861 59.3521 103.393 59.3521 99.6898V86.9185H67.8934V100.333C67.8934 108.528 61.8268 114.15 53.4814 114.15H46.4935Z" fill="white"/>
<path d="M86.919 113.905C85.5623 113.905 84.5337 113.2 83.8334 111.903L71.1572 86.8788H80.3648L88.4892 103.62L96.5589 86.8788H105.821L93.0356 111.903C92.3845 113.205 91.356 113.905 90.0539 113.905H86.9136H86.919Z" fill="white"/>
<path d="M112.917 84.2197C110.532 84.2197 108.798 82.7042 108.798 80.2642C108.798 77.8241 110.532 76.4181 112.917 76.4181H114.165C116.55 76.4181 118.23 77.9336 118.23 80.2642C118.23 82.5948 116.55 84.2197 114.165 84.2197H112.917ZM108.962 113.905V86.8731H118.011V113.905H108.962Z" fill="white"/>
<path d="M122.289 113.905V106.487H141.355C142.548 106.487 143.254 105.89 143.254 104.752C143.254 103.724 142.658 103.073 141.355 103.073H130.736C125.211 103.073 121.961 99.5495 121.961 94.9484C121.961 90.0191 125.698 86.8788 130.682 86.8788H150.563V94.2974H132.361C131.223 94.2974 130.518 94.8937 130.518 95.977C130.518 97.0602 131.114 97.6566 132.361 97.6566H143.194C148.719 97.6566 151.914 101.07 151.914 105.726C151.914 110.71 148.232 113.905 143.194 113.905H122.284H122.289Z" fill="white"/>
<path d="M159.776 84.2197C157.391 84.2197 155.656 82.7042 155.656 80.2642C155.656 77.8241 157.391 76.4181 159.776 76.4181H161.023C163.409 76.4181 165.088 77.9336 165.088 80.2642C165.088 82.5948 163.409 84.2197 161.023 84.2197H159.776ZM155.82 113.905V86.8731H164.869V113.905H155.82Z" fill="white"/>
<path d="M183.662 113.905C175.264 113.905 169.142 108.38 169.142 100.365C169.142 92.3497 175.264 86.8788 183.662 86.8788H187.453C195.851 86.8788 201.973 92.3497 201.973 100.365C201.973 108.38 195.851 113.905 187.453 113.905H183.662ZM187.453 105.672C190.593 105.672 192.924 103.505 192.924 100.365C192.924 97.2244 190.593 95.1126 187.453 95.1126H183.607C180.412 95.1126 178.136 97.2244 178.136 100.365C178.136 103.505 180.412 105.672 183.607 105.672H187.453Z" fill="white"/>
<path d="M228.951 113.905V99.7136C228.951 96.628 227.381 95.1071 224.24 95.1071H215.191V113.905H206.093V86.8733H224.459C233.344 86.8733 238 91.5838 238 99.7683V113.905H228.951Z" fill="white"/>
<path d="M99.8031 57.6035C108.114 63.3863 116.659 64.7103 125.593 60.5523C134.062 56.6078 138.964 49.7527 139.801 40.4028C140.075 37.3555 142.455 36.7701 144.194 34.8935C144.709 38.9092 144.326 42.531 143.33 46.0981C137.695 66.3351 112.709 74.0984 96.6245 60.5633C95.4209 59.5511 94.458 59.4363 93.0356 59.9068C89.3755 61.1158 85.6498 62.1553 81.7216 61.4605C78.3515 60.8587 77.0002 58.4952 78.1655 55.2674C79.2597 52.2365 81.3222 49.8183 83.7295 47.8542C86.0655 45.9449 86.6345 44.0574 86.2297 40.9882C84.2984 26.3698 94.9777 12.1125 109.514 9.45359C118.962 7.72477 127.355 10.0062 134.631 16.2649C135.337 16.8722 135.884 16.73 136.595 16.5111C140.173 15.3951 143.751 14.279 147.57 14.454C150.492 14.5908 152.423 16.0406 152.636 18.3439C152.762 19.7335 152.259 21.0083 151.613 22.2119C149.955 25.2811 147.625 27.7922 145.037 30.0791C134.795 39.1335 123.235 46.1801 111.123 52.3951C110.761 52.5811 110.4 52.7781 110.017 52.986C111.429 54.0145 114.701 54.496 117.348 54.0638C122.42 53.2431 126.343 50.6827 129.024 46.2841C129.303 45.8245 129.625 45.4689 130.074 45.1789C131.721 44.1121 133.356 43.0289 135.102 41.88C135.353 42.9687 134.943 43.7729 134.675 44.5771C130.747 56.3835 117.381 62.0295 106.275 56.4983C104.853 55.7871 103.726 55.6832 102.402 56.46C101.696 56.8704 100.908 57.1385 99.8086 57.6254L99.8031 57.6035ZM138.68 20.4995C138.893 20.8605 139.03 21.1341 139.205 21.3803C140.263 22.8976 140.113 24.2781 138.756 25.5218C137.356 26.8075 137.378 26.7911 136.316 25.1334C131.748 17.9883 125.21 13.8796 116.78 13.3927C107.173 12.8346 99.4803 16.7792 94.3376 24.8981C89.1895 33.0225 89.0746 41.5736 93.5936 50.0864C94.261 51.3447 94.2063 51.7113 92.8222 52.1106C90.0812 52.9094 90.0867 52.9969 88.7682 50.4748C88.4181 49.8019 88.1664 49.5995 87.5537 50.2067C85.7756 51.9629 84.0249 53.7465 82.7064 55.8911C82.4602 56.2959 81.9131 56.7062 82.2906 57.2588C82.6298 57.7567 83.2371 57.6035 83.7459 57.598C85.6935 57.5707 87.5372 56.9962 89.3809 56.4655C99.7375 53.4674 109.284 48.6475 118.563 43.275C127.667 38.001 136.415 32.2073 144.041 24.8817C145.502 23.4757 146.974 22.0641 148.024 20.3025C148.533 19.4545 148.538 18.7761 147.275 18.8035C144.342 18.8691 141.525 19.5366 138.674 20.5049L138.68 20.4995Z" fill="#03FD5F"/>
<path d="M155.509 50.3492C155.525 52.7673 153.616 54.7478 151.219 54.808C148.801 54.8682 146.711 52.8111 146.722 50.371C146.733 47.9748 148.697 46.0271 151.11 46.0162C153.523 46.0052 155.492 47.9419 155.509 50.3437V50.3492Z" fill="#03FD5F"/>
<path d="M133.674 8.67148C131.196 8.65507 129.346 6.78947 129.368 4.32207C129.385 1.83825 131.228 0.00548289 133.712 1.19316e-05C136.284 -0.00545902 138.133 1.87108 138.078 4.43149C138.023 6.93171 136.202 8.68789 133.679 8.67148H133.674Z" fill="#03FD5F"/>
<path d="M85.2066 24.1487C85.1902 25.5219 84.2164 26.4739 82.8486 26.4574C81.5137 26.441 80.4633 25.3961 80.4852 24.1049C80.5071 22.8247 81.6177 21.747 82.9034 21.7579C84.2492 21.7688 85.223 22.781 85.2066 24.1487Z" fill="#03FD5F"/>
<path d="M94.764 37.9683C94.8133 28.6349 101.094 20.5105 110.017 18.2401C119.055 15.9368 128.569 19.9579 133.055 27.9127C133.684 29.0288 133.777 29.647 132.563 30.5224C122.272 37.9191 111.357 44.2107 99.7973 49.4026C98.6594 49.9169 98.1615 49.6488 97.6254 48.6914C95.7543 45.3596 94.6656 41.8253 94.7695 37.9738L94.764 37.9683ZM99.1791 37.9957C99.1518 39.7245 99.4253 41.4041 99.9232 43.0618C100.213 44.0301 100.525 44.3967 101.63 43.8605C110.482 39.5877 118.962 34.6693 127.092 29.1491C127.874 28.6185 128 28.2738 127.311 27.5024C122.857 22.5129 115.898 20.7075 109.683 23.0053C103.392 25.3304 99.2448 31.239 99.1736 37.9902L99.1791 37.9957Z" fill="#03FD5F"/>
</svg>
