<svg width="287" height="293" viewBox="0 0 287 293" fill="none" xmlns="http://www.w3.org/2000/svg">
<g clip-path="url(#clip0_19_872)">
<path d="M42.6792 71.1355L58.8998 54.9349C63.5343 50.3061 63.5343 42.7739 58.8998 38.1451C54.2653 33.5164 46.7238 33.5164 42.0893 38.1451L25.8687 54.3458C21.2342 58.9745 21.2342 66.5068 25.8687 71.1355C30.5031 75.7853 38.0447 75.7853 42.6792 71.1355Z" fill="white"/>
<path d="M264.249 231.732L274.55 211.26C277.499 205.39 275.119 198.258 269.263 195.312C263.385 192.367 256.244 194.744 253.295 200.593L242.994 221.065C240.044 226.935 242.425 234.068 248.281 237.013C254.159 239.959 261.3 237.581 264.249 231.732Z" fill="white"/>
<path d="M122.224 25.374L134.421 23.6277C140.93 22.7019 145.438 16.6845 144.511 10.1832C143.584 3.68195 137.56 -0.820565 131.05 0.105185L118.853 1.85149C112.344 2.77724 107.836 8.79462 108.763 15.2959C109.69 21.7972 115.714 26.2997 122.224 25.374Z" fill="white"/>
<path d="M25.4054 186.16L23.6569 173.978C22.73 167.477 16.7052 162.974 10.1959 163.9C3.68658 164.826 -0.821498 170.843 0.105395 177.344L1.85385 189.526C2.78075 196.028 8.80556 200.53 15.3149 199.604C21.8242 198.679 26.3323 192.661 25.4054 186.16Z" fill="white"/>
<path d="M287 167.792V140.819C287 138.309 284.963 136.275 282.45 136.275H267.767C265.254 136.275 263.217 138.309 263.217 140.819V167.792C263.217 170.302 265.254 172.337 267.767 172.337H282.45C284.963 172.337 287 170.302 287 167.792Z" fill="white"/>
<path d="M100.147 289.402L112.049 292.579C118.39 294.283 124.92 290.517 126.605 284.184C128.312 277.851 124.541 271.329 118.2 269.646L106.298 266.469C99.9571 264.765 93.4267 268.531 91.7415 274.864C90.0351 281.197 93.8059 287.719 100.147 289.402Z" fill="white"/>
<path d="M141.351 286.225C217.137 286.225 278.574 224.864 278.574 149.172C278.574 73.4797 217.137 12.1189 141.351 12.1189C65.5655 12.1189 4.12891 73.4797 4.12891 149.172C4.12891 224.864 65.5655 286.225 141.351 286.225Z" fill="white"/>
<path d="M191.277 67.8743C191.762 74.2704 189.781 80.8769 186.2 86.4735C182.64 92.1332 177.289 96.6567 171.286 99.6234C165.156 102.548 157.656 103.579 151.126 101.349C144.616 99.2867 139.181 94.9736 135.769 89.5663C140.951 93.2273 146.554 95.8572 152.242 96.804C155.086 97.2669 157.909 97.33 160.669 96.804C163.449 96.4884 166.082 95.4154 168.652 94.2372C169.937 93.5849 171.244 92.9117 172.486 92.1753C173.687 91.3547 174.951 90.6183 176.047 89.6926C178.448 88.0304 180.428 85.8844 182.429 83.7173C186.242 79.2358 189.276 73.8917 191.256 67.8743H191.277Z" fill="#C7C7C7"/>
<path d="M141.962 75.7643C141.246 71.3459 142.426 66.654 144.806 62.6565C147.208 58.6379 150.894 55.3346 155.128 53.2727C159.447 51.1477 164.882 50.5586 169.432 52.2418C173.982 53.8198 177.669 57.0178 179.712 60.9943C175.899 58.7852 172.065 57.2493 168.316 56.7864C164.566 56.2604 161.069 57.123 157.741 58.6589C150.831 61.9832 145.417 67.664 141.92 75.7643H141.962Z" fill="#C7C7C7"/>
<path d="M95.47 169.896C97.2395 173.873 97.2185 178.607 95.8281 182.962C94.4167 187.296 91.5939 191.294 87.9074 194.05C84.1788 196.974 79.0387 198.426 74.4042 197.69C69.7698 196.995 65.662 194.723 62.9023 191.378C67.0102 192.619 70.9705 193.25 74.6149 193.019C78.2803 192.788 81.4613 191.399 84.263 189.295C87.1912 187.107 89.6559 184.33 91.5518 181.11C93.4056 177.849 94.7538 174.125 95.47 169.896Z" fill="#C7C7C7"/>
<path d="M67.0735 185.445C65.4725 182.773 65.3039 179.385 66.1255 176.25C67.0103 173.115 69.0115 170.212 71.6447 168.234C74.3412 166.109 78.133 165.078 81.4614 165.751C84.7687 166.404 87.5915 168.192 89.2557 170.801C86.2433 170.296 83.568 170.107 81.2507 170.443C78.9124 170.759 77.0586 171.664 75.2891 172.968C71.5605 175.829 68.8641 179.596 67.0735 185.403V185.445Z" fill="#C7C7C7"/>
<path d="M46.2604 139.389C48.6619 141.514 50.0522 144.733 50.1786 148.183C50.2629 151.676 48.8725 155.274 46.3025 157.861C43.6904 160.66 39.5825 161.733 36.2541 161.291C32.8626 160.891 29.8712 159.46 27.6172 157.167C30.7771 157.125 33.642 157.125 36.1488 156.578C38.6556 156.073 40.5937 155.147 42.0472 153.632C43.6061 152.054 44.849 150.035 45.5231 147.678C46.2604 145.301 46.4078 142.523 46.2815 139.368L46.2604 139.389Z" fill="#C7C7C7"/>
<path d="M29.2602 152.707C27.259 151.423 26.0582 149.172 25.8476 146.647C25.658 144.08 26.627 141.387 28.5651 139.452C30.5453 137.327 33.6841 136.59 36.0645 137.032C38.5081 137.453 40.5726 138.652 41.9629 140.588C39.6667 140.988 37.7497 141.219 36.1698 141.724C34.5899 142.208 33.6209 142.818 32.8204 143.639C31.9145 144.543 31.114 145.679 30.5242 147.089C29.8922 148.541 29.5341 150.371 29.2602 152.665V152.707Z" fill="#C7C7C7"/>
<path d="M234.294 98.8028C234.673 102.001 233.577 105.304 231.365 107.976C229.111 110.648 225.678 112.416 222.012 112.626C218.178 112.984 214.407 111.048 212.217 108.523C209.963 105.977 208.678 102.906 208.509 99.7075C210.889 101.79 213.038 103.663 215.271 104.925C217.483 106.23 219.547 106.819 221.633 106.63C223.845 106.482 226.12 105.788 228.184 104.484C230.312 103.179 232.292 101.222 234.294 98.7607V98.8028Z" fill="#C7C7C7"/>
<path d="M212.722 97.4773C212.09 95.184 212.68 92.7223 214.218 90.6815C215.777 88.6406 218.304 87.273 221.022 87.1047C223.908 86.8312 226.752 88.3671 228.248 90.2817C229.785 92.2174 230.523 94.4897 230.291 96.8461C228.311 95.6048 226.71 94.5107 225.193 93.8585C223.676 93.1642 222.56 92.9748 221.422 93.08C220.137 93.1642 218.789 93.4798 217.399 94.132C215.966 94.8053 214.492 95.9204 212.743 97.4773H212.722Z" fill="#C7C7C7"/>
<path d="M157.361 191.904C172.613 198.7 190.519 191.799 197.365 176.482C204.211 161.165 197.365 143.239 182.135 136.443C166.883 129.647 148.977 136.548 142.131 151.865C135.284 167.182 142.131 185.108 157.361 191.904Z" fill="#DBDBDB"/>
<path d="M183.946 149.908C192.246 153.611 197.829 160.954 199.577 169.244C201.873 155.905 195.027 142.187 182.114 136.443C166.862 129.647 148.956 136.569 142.11 151.865C137.18 162.911 139.329 175.303 146.66 183.909C144.511 177.597 144.68 170.506 147.629 163.9C153.822 150.014 170.106 143.744 183.946 149.908Z" fill="#C7C7C7"/>
<path d="M211.669 169.265C211.985 177.134 209.415 185.129 204.97 191.904C200.546 198.742 194.016 204.212 186.685 207.852C179.227 211.408 170.19 212.691 162.248 210.061C154.307 207.642 147.587 202.508 143.163 196.049C149.356 200.783 156.266 204.212 163.365 205.538C165.134 205.895 166.925 205.958 168.695 206.106C170.464 206.001 172.234 206.106 173.982 205.685C177.5 205.306 180.828 203.96 184.073 202.487C185.674 201.666 187.317 200.804 188.876 199.878C190.371 198.847 191.951 197.921 193.341 196.743C196.333 194.618 198.798 191.925 201.241 189.169C205.939 183.509 209.541 176.755 211.711 169.265H211.669Z" fill="#C7C7C7"/>
<path d="M244.89 180.795C250.957 182.205 257.023 178.396 258.435 172.295C259.846 166.193 256.076 160.113 250.009 158.724C243.942 157.314 237.875 161.123 236.463 167.224C235.052 173.326 238.823 179.406 244.89 180.795Z" fill="#DBDBDB"/>
<path d="M251.631 163.521C254.938 164.279 257.508 166.572 258.73 169.496C258.624 164.447 255.128 159.923 249.987 158.724C243.921 157.314 237.854 161.123 236.442 167.224C235.431 171.622 237.095 175.998 240.403 178.628C239.16 176.461 238.717 173.852 239.328 171.222C240.613 165.688 246.111 162.238 251.631 163.521Z" fill="#C7C7C7"/>
<path d="M263.154 168.655C263.975 171.495 263.701 174.693 262.585 177.555C261.489 180.458 259.446 182.983 256.981 184.877C254.453 186.749 251.104 187.885 247.944 187.422C244.805 187.044 241.961 185.529 239.96 183.362C242.657 184.519 245.416 185.192 248.049 185.108C250.683 185.045 253.105 184.056 255.17 182.499C259.446 179.322 262.311 174.483 263.133 168.676L263.154 168.655Z" fill="#C7C7C7"/>
<path d="M167.052 254.161C175.899 254.623 183.441 247.828 183.925 238.949C184.41 230.07 177.627 222.496 168.779 222.012C159.931 221.549 152.39 228.345 151.905 237.224C151.421 246.102 158.204 253.677 167.052 254.161Z" fill="#DBDBDB"/>
<path d="M172.234 228.324C177.058 228.576 181.208 231.164 183.651 234.93C182.261 227.882 176.257 222.412 168.779 222.012C159.952 221.549 152.39 228.366 151.905 237.224C151.568 243.62 154.981 249.342 160.247 252.225C157.993 249.511 156.708 245.955 156.919 242.126C157.34 234.089 164.208 227.903 172.234 228.324Z" fill="#C7C7C7"/>
<path d="M189.634 232.658C191.193 236.508 191.488 240.927 190.54 245.113C189.634 249.321 187.443 253.256 184.515 256.433C181.503 259.589 177.31 261.945 172.887 262.156C168.505 262.492 164.229 261.188 160.795 258.895C164.734 260.136 168.821 260.494 172.613 259.82C176.405 259.168 179.733 257.148 182.345 254.371C185.021 251.552 187.043 248.185 188.307 244.482C189.529 240.779 190.076 236.74 189.634 232.637V232.658Z" fill="#C7C7C7"/>
<path d="M95.2593 98.908C88.0126 109.996 71.9605 112.352 59.4053 104.168C46.8712 95.9835 42.5738 80.3509 49.8415 69.263C57.0881 58.175 73.1402 55.8185 85.6954 64.003C98.2295 72.1875 102.527 87.8201 95.2593 98.908Z" fill="#DBDBDB"/>
<path d="M55.3607 79.6566C51.4004 85.695 51.2108 93.2273 54.1811 99.8758C45.8179 91.2495 43.6903 78.6257 49.8415 69.2419C57.0881 58.1539 73.1613 55.7975 85.6954 63.982C94.7327 69.8941 99.4935 79.6566 98.693 88.8089C97.0078 83.4017 93.3002 78.3942 87.9073 74.8595C76.5529 67.4325 61.9543 69.5785 55.3818 79.6356L55.3607 79.6566Z" fill="#C7C7C7"/>
<path d="M104.107 80.5824C107.73 86.0527 109.163 93.2273 107.646 100.128C106.993 103.621 105.245 106.861 103.18 109.722C101.095 112.647 98.335 114.877 95.3226 116.939C92.1417 118.643 88.7079 119.948 85.19 120.369C81.693 120.726 78.1751 120.768 74.8467 120.074C68.1478 118.875 61.9123 116.182 56.688 112.205C62.9867 113.93 69.2432 115.193 75.3523 115.424C81.4613 115.677 87.4019 114.667 92.247 111.805C94.5642 110.312 96.9447 108.481 98.7353 106.23C100.652 104.084 102.148 101.58 103.159 98.8449C105.16 93.3535 105.392 86.9785 104.086 80.5824H104.107Z" fill="#C7C7C7"/>
</g>
<defs>
<clipPath id="clip0_19_872">
<rect width="287" height="293" fill="white"/>
</clipPath>
</defs>
</svg>
